<svg width="170" height="31" viewBox="0 0 170 31" fill="none" xmlns="http://www.w3.org/2000/svg">
<g clip-path="url(#clip0_195_1047)">
<path d="M1.70264 30.5874H9.53438L12.3351 14.8853H4.50334L1.70264 30.5874Z" fill="#FF5B2C"/>
<path d="M21.5545 17.96H21.18L20.4564 14.8853H13.4333L16.7363 30.3768H21.5375L30.4248 14.8853H23.3678L21.5545 17.96Z" fill="#FF5B2C"/>
<path d="M31.4972 14.8853L28.6965 30.5874H36.5283L39.329 14.8853H31.4972Z" fill="#FF5B2C"/>
<path d="M43.4406 14.8853L40.6484 30.5874H48.6504L51.4426 14.8853H43.4406Z" fill="#FF5B2C"/>
<path d="M78.9901 14.8853H55.5715L52.7708 30.5874H60.7728L62.5604 20.5461H65.7187L69.3196 30.5874H78.0366L73.8143 19.291C76.0021 18.3475 77.7728 16.8564 78.9901 14.8853Z" fill="#FF5B2C"/>
<path d="M99.991 14.8853L100.493 18.6676H93.9639L95.8027 14.8853H87.5879L79.5007 30.5874H88.1838L91.044 24.6738H101.276L102.034 30.5874H110.666L108.206 14.8853H99.991Z" fill="#FF5B2C"/>
<path d="M129.964 14.8853L129.139 19.5016H134.783C134.221 22.3151 131.965 24.0842 128.151 24.0842C123.776 24.0842 122.031 20.8747 122.992 15.4581C123.027 15.2643 123.069 15.079 123.112 14.8853H114.871C114.829 15.1043 114.769 15.3149 114.727 15.5423C113.024 25.0866 117.995 31.0002 126.84 31.0002C134.8 31.0002 141.346 26.1649 142.81 17.96L143.355 14.8853H129.964Z" fill="#FF5B2C"/>
<path d="M154.669 18.7097H167.302L167.983 14.8853H157.393H147.348L144.555 30.5874H166.28L167.429 24.1684H153.698L154.669 18.7097Z" fill="#FF5B2C"/>
<path d="M15.3571 0.412598H5.38015L2.80078 14.8849H10.6325L11.0156 12.7115H11.271L11.7307 14.8849H18.7537L15.3571 0.412598Z" fill="#FF5B2C"/>
<path d="M40.2059 0.412598H30.2204L21.665 14.8849H28.7221L29.9054 12.8379H30.1608L29.7947 14.8849H37.6265L40.2059 0.412598Z" fill="#FF5B2C"/>
<path d="M52.3197 0.412598H44.3177L41.7383 14.8849H49.7403L52.3197 0.412598Z" fill="#FF5B2C"/>
<path d="M78.8794 10.6224C80.0116 4.24548 76.2319 0.412598 69.4132 0.412598H56.4397L53.8604 14.8849H77.279C78.0366 13.6466 78.5899 12.2313 78.8709 10.6224H78.8794ZM70.5028 10.6224C70.0346 13.2506 68.1192 14.3289 65.0802 14.3289H61.9645L63.318 6.74738H66.4337C69.4643 6.74738 70.9795 7.952 70.5028 10.6224Z" fill="#FF5B2C"/>
<path d="M97.1819 8.54167H97.4373L98.2886 14.8849H106.503L104.239 0.412598H93.3256L85.877 14.8849H94.1003L97.1819 8.54167Z" fill="#FF5B2C"/>
<path d="M129.556 6.91603C132.254 6.91603 133.838 8.1712 133.999 10.3361H142.129C142.529 4.2962 137.779 0 130.62 0C122.592 0 115.152 5.38288 113.177 14.8851H121.418C122.49 9.8644 125.461 6.91603 129.556 6.91603Z" fill="#FF5B2C"/>
<path d="M141.84 13.832H128.449L128.262 14.885H141.653L141.84 13.832Z" fill="#FF5B2C"/>
<path d="M166.28 14.8849L166.74 12.2903H154.107L155.086 6.83162H168.851L170 0.412598H148.224L145.645 14.8849H155.69H166.28Z" fill="#FF5B2C"/>
<path d="M0.851318 30.5874H8.68307L11.4838 14.8853H3.65202L0.851318 30.5874Z" fill="white"/>
<path d="M20.7032 17.96H20.3287L19.6051 14.8853H12.582L15.885 30.3768H20.6777L29.5735 14.8853H22.5164L20.7032 17.96Z" fill="white"/>
<path d="M30.6459 14.8853L27.8452 30.5874H35.677L38.4777 14.8853H30.6459Z" fill="white"/>
<path d="M42.5893 14.8853L39.7971 30.5874H47.7991L50.5913 14.8853H42.5893Z" fill="white"/>
<path d="M78.1388 14.8853H54.7201L51.9194 30.5874H59.9214L61.7091 20.5461H64.8674L68.4683 30.5874H77.1853L72.963 19.291C75.1508 18.3475 76.9214 16.8564 78.1388 14.8853Z" fill="white"/>
<path d="M99.1397 14.8853L99.6419 18.6676H93.1126L94.9514 14.8853H86.7365L78.6494 30.5874H87.3324L90.1927 24.6738H100.425L101.183 30.5874H109.815L107.354 14.8853H99.1397Z" fill="white"/>
<path d="M129.113 14.8853L128.287 19.5016H133.931C133.37 22.3151 131.114 24.0842 127.3 24.0842C122.924 24.0842 121.179 20.8747 122.141 15.4581C122.175 15.2643 122.218 15.079 122.26 14.8853H114.02C113.977 15.1043 113.918 15.3149 113.875 15.5423C112.173 25.0866 117.144 31.0002 125.989 31.0002C133.948 31.0002 140.495 26.1649 141.959 17.96L142.504 14.8853H129.113Z" fill="white"/>
<path d="M153.817 18.7097H166.45L167.131 14.8853H156.541H146.496L143.704 30.5874H165.429L166.578 24.1684H152.847L153.817 18.7097Z" fill="white"/>
<path d="M14.5058 0.412598H4.52883L1.94946 14.8849H9.78121L10.1643 12.7115H10.4197L10.8794 14.8849H17.9024L14.5058 0.412598Z" fill="white"/>
<path d="M39.3545 0.412598H29.3691L20.8137 14.8849H27.8708L29.0541 12.8379H29.3095L28.9434 14.8849H36.7752L39.3545 0.412598Z" fill="white"/>
<path d="M51.4683 0.412598H43.4663L40.887 14.8849H48.889L51.4683 0.412598Z" fill="white"/>
<path d="M78.0281 10.6224C79.1603 4.24548 75.3806 0.412598 68.5619 0.412598H55.5884L53.009 14.8849H76.4277C77.1853 13.6466 77.7386 12.2313 78.0196 10.6224H78.0281ZM69.6515 10.6224C69.1833 13.2506 67.2679 14.3289 64.2289 14.3289H61.1132L62.4667 6.74738H65.5824C68.6129 6.74738 70.1282 7.952 69.6515 10.6224Z" fill="white"/>
<path d="M96.3306 8.54167H96.586L97.4373 14.8849H105.652L103.388 0.412598H92.4743L85.0256 14.8849H93.249L96.3306 8.54167Z" fill="white"/>
<path d="M128.705 6.91603C131.403 6.91603 132.987 8.1712 133.148 10.3361H141.278C141.678 4.2962 136.928 0 129.769 0C121.741 0 114.301 5.38288 112.318 14.8851H120.558C121.631 9.8644 124.602 6.91603 128.696 6.91603H128.705Z" fill="white"/>
<path d="M140.989 13.832H127.598L127.411 14.885H140.801L140.989 13.832Z" fill="white"/>
<path d="M165.429 14.8849L165.888 12.2903H153.255L154.234 6.83162H168L169.149 0.412598H147.373L144.794 14.8849H154.839H165.429Z" fill="white"/>
<path d="M104.801 14.8849L102.536 0.412598H91.6314L84.1827 14.8849H85.8853L77.8066 30.5871H86.4811L89.35 24.6735H99.5823L100.34 30.5871H108.972L106.512 14.8849H104.809H104.801ZM92.2613 18.6672L94.1001 14.8849H92.3975L95.4792 8.54167H95.7345L96.5858 14.8849H98.2884L98.7906 18.6672H92.2613Z" fill="url(#paint0_linear_195_1047)"/>
<path d="M28.5178 0.412598L19.9624 14.8849H21.665L19.8518 17.9596H19.4772L18.7536 14.8849H17.0511L13.6545 0.412598H3.67752L1.09815 14.8849H2.8007L0 30.5871H7.83175L10.6324 14.8849H11.7391L15.0336 30.3765H19.8348L28.7306 14.8849H29.7947L26.994 30.5871H34.8257L37.6264 14.8849H35.9239L38.5033 0.412598H28.5263H28.5178ZM8.9299 14.8849L9.32148 12.7031H9.57687L10.0366 14.8849H8.9299ZM27.0195 14.8849L28.1943 12.8294H28.4497L28.0836 14.8849H27.0195Z" fill="url(#paint1_linear_195_1047)"/>
<path d="M42.6148 0.412598L40.0354 14.8849H41.738L38.9458 30.5871H46.9478L49.74 14.8849H48.0374L50.6168 0.412598H42.6148Z" fill="url(#paint2_linear_195_1047)"/>
<path d="M67.7105 0.412598H54.7371L52.1577 14.8849H53.8603L51.0596 30.5871H59.0616L60.8493 20.5457H64.0075L67.6084 30.5871H76.3255L72.1031 19.2906C74.2909 18.3471 76.0616 16.8561 77.2789 14.8849H75.5763C76.334 13.6466 76.8873 12.2313 77.1682 10.6224C78.3004 4.24548 74.5208 0.412598 67.702 0.412598H67.7105ZM61.6154 6.74738H64.7311C67.7616 6.74738 69.2769 7.952 68.8002 10.6224C68.332 13.2506 66.4166 14.3289 63.3775 14.3289H60.2619L61.6154 6.74738Z" fill="url(#paint3_linear_195_1047)"/>
<path d="M140.137 13.8321H126.747L126.559 14.8851H128.262L127.436 19.5014H133.08C132.518 22.3149 130.262 24.084 126.449 24.084C122.073 24.084 120.328 20.8745 121.29 15.4579C121.324 15.2641 121.367 15.0788 121.409 14.8851H119.707C120.779 9.8644 123.75 6.91603 127.845 6.91603C130.543 6.91603 132.127 8.1712 132.289 10.3361H140.418C140.818 4.2962 136.068 0 128.909 0C120.881 0 113.441 5.38288 111.458 14.8851H113.16C113.118 15.1041 113.058 15.3147 113.016 15.5421C111.313 25.0864 116.285 31 125.129 31C133.089 31 139.635 26.1647 141.099 17.9598L141.644 14.8851H139.941L140.129 13.8321H140.137Z" fill="url(#paint4_linear_195_1047)"/>
<path d="M167.148 6.83162L168.297 0.412598H146.522L143.942 14.8849H145.645L142.853 30.5871H164.577L165.727 24.168H151.996L152.966 18.7093H165.599L166.28 14.8849H164.577L165.037 12.2903H152.404L153.383 6.83162H167.148Z" fill="url(#paint5_linear_195_1047)"/>
</g>
<defs>
<linearGradient id="paint0_linear_195_1047" x1="93.385" y1="-1.44066" x2="93.385" y2="46.5672" gradientUnits="userSpaceOnUse">
<stop stop-color="#FBC2EB"/>
<stop offset="1" stop-color="#A6C0EE"/>
</linearGradient>
<linearGradient id="paint1_linear_195_1047" x1="19.2474" y1="-1.44066" x2="19.2474" y2="46.5672" gradientUnits="userSpaceOnUse">
<stop stop-color="#FBC2EB"/>
<stop offset="1" stop-color="#A6C0EE"/>
</linearGradient>
<linearGradient id="paint2_linear_195_1047" x1="44.777" y1="-1.44066" x2="44.777" y2="46.5672" gradientUnits="userSpaceOnUse">
<stop stop-color="#FBC2EB"/>
<stop offset="1" stop-color="#A6C0EE"/>
</linearGradient>
<linearGradient id="paint3_linear_195_1047" x1="64.2203" y1="-1.44066" x2="64.2203" y2="46.5672" gradientUnits="userSpaceOnUse">
<stop stop-color="#FBC2EB"/>
<stop offset="1" stop-color="#A6C0EE"/>
</linearGradient>
<linearGradient id="paint4_linear_195_1047" x1="126.559" y1="-1.44049" x2="126.559" y2="46.5674" gradientUnits="userSpaceOnUse">
<stop stop-color="#FBC2EB"/>
<stop offset="1" stop-color="#A6C0EE"/>
</linearGradient>
<linearGradient id="paint5_linear_195_1047" x1="155.571" y1="-1.44066" x2="155.571" y2="46.5672" gradientUnits="userSpaceOnUse">
<stop stop-color="#FBC2EB"/>
<stop offset="1" stop-color="#A6C0EE"/>
</linearGradient>
<clipPath id="clip0_195_1047">
<rect width="170" height="31" fill="white"/>
</clipPath>
</defs>
</svg>
