<svg width="36" height="36" viewBox="0 0 48 48" fill="none" xmlns="http://www.w3.org/2000/svg">
<circle cx="24" cy="24" r="23" stroke="white" stroke-width="2"/>
<path d="M29.9005 14.9554C29.9005 11.9163 27.4396 9.45536 24.4005 9.45536C21.3615 9.45536 18.9005 11.9163 18.9005 14.9554C18.9005 17.9944 21.3615 20.4554 24.4005 20.4554C27.4396 20.4554 29.9005 17.9944 29.9005 14.9554ZM33.0434 14.9554C33.0434 19.7302 29.1754 23.5982 24.4005 23.5982C19.6257 23.5982 15.7577 19.7302 15.7577 14.9554C15.7577 10.1805 19.6257 6.3125 24.4005 6.3125C29.1754 6.3125 33.0434 10.1805 33.0434 14.9554ZM13.4005 34.037C13.4005 35.5194 13.2746 35.3839 14.1169 35.3839H35.4699C36.3122 35.3839 36.1863 35.5194 36.1863 34.037C36.1863 30.4413 30.9942 28.3125 24.7934 28.3125C18.5926 28.3125 13.4005 30.4413 13.4005 34.037ZM10.2577 34.037C10.2577 27.9395 17.0131 25.1696 24.7934 25.1696C32.5737 25.1696 39.3291 27.9395 39.3291 34.037C39.3291 37.2057 38.1017 38.5268 35.4699 38.5268H14.1169C11.4851 38.5268 10.2577 37.2057 10.2577 34.037Z" fill="white"/>
</svg>
